<svg width="36" height="36" viewBox="0 0 36 36" fill="none" xmlns="http://www.w3.org/2000/svg">
<mask id="path-1-inside-1_1328_164" fill="white">
<path d="M24 12H36.001V24H24V36H12.001V24H0V12H12.001V0H24V12Z"/>
</mask>
<path d="M24 12H36.001V24H24V36H12.001V24H0V12H12.001V0H24V12Z" fill="white"/>
<path d="M24 12H23V13H24V12ZM36.001 12H37.001V11H36.001V12ZM36.001 24V25H37.001V24H36.001ZM24 24V23H23V24H24ZM24 36V37H25V36H24ZM12.001 36H11.001V37H12.001V36ZM12.001 24H13.001V23H12.001V24ZM0 24H-1V25H0V24ZM0 12V11H-1V12H0ZM12.001 12V13H13.001V12H12.001ZM12.001 0V-1H11.001V0H12.001ZM24 0H25V-1H24V0ZM24 12V13H36.001V12V11H24V12ZM36.001 12H35.001V24H36.001H37.001V12H36.001ZM36.001 24V23H24V24V25H36.001V24ZM24 24H23V36H24H25V24H24ZM24 36V35H12.001V36V37H24V36ZM12.001 36H13.001V24H12.001H11.001V36H12.001ZM12.001 24V23H0V24V25H12.001V24ZM0 24H1V12H0H-1V24H0ZM0 12V13H12.001V12V11H0V12ZM12.001 12H13.001V0H12.001H11.001V12H12.001ZM12.001 0V1H24V0V-1H12.001V0ZM24 0H23V12H24H25V0H24Z" fill="#4D4D4D" mask="url(#path-1-inside-1_1328_164)"/>
</svg>
