<svg width="37" height="37" viewBox="0 0 37 37" fill="none" xmlns="http://www.w3.org/2000/svg">
<path d="M18.262 0.575357C18.2796 0.538218 18.3066 0.506956 18.3402 0.485099C18.3738 0.463242 18.4125 0.45166 18.452 0.45166C18.4915 0.45166 18.5303 0.463242 18.5638 0.485099C18.5974 0.506956 18.6245 0.538218 18.642 0.575357L19.5659 2.53802C19.6268 2.6672 19.7166 2.77896 19.8277 2.86371C19.9389 2.94846 20.0679 3.00367 20.2039 3.02459L22.2701 3.34171C22.3092 3.34765 22.346 3.36497 22.3763 3.39171C22.4065 3.41844 22.429 3.45351 22.4413 3.49297C22.4535 3.53242 22.455 3.57468 22.4455 3.61496C22.436 3.65524 22.416 3.69194 22.3877 3.7209L20.8934 5.2469C20.7949 5.34761 20.7211 5.47193 20.6786 5.60916C20.636 5.74639 20.6258 5.89241 20.649 6.03465L21.0018 8.19068C21.0087 8.23172 21.0045 8.27397 20.9896 8.31261C20.9747 8.35125 20.9498 8.38473 20.9176 8.40922C20.8855 8.43371 20.8474 8.44823 20.8078 8.45112C20.7681 8.45402 20.7285 8.44517 20.6934 8.42558L18.8464 7.40713C18.7247 7.34011 18.5893 7.30509 18.4518 7.30509C18.3144 7.30509 18.179 7.34011 18.0573 7.40713L16.2106 8.42558C16.1756 8.44505 16.136 8.4538 16.0964 8.45085C16.0568 8.4479 16.0188 8.43337 15.9868 8.40889C15.9547 8.38442 15.9298 8.35099 15.9149 8.31242C15.9 8.27384 15.8958 8.23166 15.9026 8.19068L16.255 6.03507C16.2783 5.89276 16.2682 5.74665 16.2256 5.60933C16.1831 5.47202 16.1093 5.34764 16.0106 5.2469L14.5164 3.72132C14.4878 3.69239 14.4676 3.65563 14.458 3.61523C14.4484 3.57482 14.4498 3.5324 14.462 3.49279C14.4743 3.45318 14.4969 3.41798 14.5273 3.3912C14.5577 3.36441 14.5946 3.34712 14.634 3.34129L16.6998 3.02459C16.8359 3.00383 16.9651 2.94869 17.0764 2.86393C17.1876 2.77917 17.2776 2.66733 17.3385 2.53802L18.262 0.575357Z" fill="#4D4D4D" stroke="white" stroke-width="0.903112" stroke-linecap="round" stroke-linejoin="round"/>
<path d="M32.262 13.5754C32.2796 13.5382 32.3066 13.507 32.3402 13.4851C32.3738 13.4632 32.4125 13.4517 32.452 13.4517C32.4915 13.4517 32.5303 13.4632 32.5638 13.4851C32.5974 13.507 32.6245 13.5382 32.642 13.5754L33.5659 15.538C33.6268 15.6672 33.7166 15.779 33.8277 15.8637C33.9389 15.9485 34.0679 16.0037 34.2039 16.0246L36.2701 16.3417C36.3092 16.3477 36.346 16.365 36.3763 16.3917C36.4065 16.4184 36.429 16.4535 36.4413 16.493C36.4535 16.5324 36.455 16.5747 36.4455 16.615C36.436 16.6552 36.416 16.6919 36.3877 16.7209L34.8934 18.2469C34.7949 18.3476 34.7211 18.4719 34.6786 18.6092C34.636 18.7464 34.6258 18.8924 34.649 19.0346L35.0018 21.1907C35.0087 21.2317 35.0045 21.274 34.9896 21.3126C34.9747 21.3513 34.9498 21.3847 34.9176 21.4092C34.8855 21.4337 34.8474 21.4482 34.8078 21.4511C34.7681 21.454 34.7285 21.4452 34.6934 21.4256L32.8464 20.4071C32.7247 20.3401 32.5893 20.3051 32.4518 20.3051C32.3144 20.3051 32.179 20.3401 32.0573 20.4071L30.2106 21.4256C30.1756 21.445 30.136 21.4538 30.0964 21.4509C30.0568 21.4479 30.0188 21.4334 29.9868 21.4089C29.9547 21.3844 29.9298 21.351 29.9149 21.3124C29.9 21.2738 29.8958 21.2317 29.9026 21.1907L30.255 19.0351C30.2783 18.8928 30.2682 18.7466 30.2256 18.6093C30.1831 18.472 30.1093 18.3476 30.0106 18.2469L28.5164 16.7213C28.4878 16.6924 28.4676 16.6556 28.458 16.6152C28.4484 16.5748 28.4498 16.5324 28.462 16.4928C28.4743 16.4532 28.4969 16.418 28.5273 16.3912C28.5577 16.3644 28.5946 16.3471 28.634 16.3413L30.6998 16.0246C30.8359 16.0038 30.9651 15.9487 31.0764 15.8639C31.1876 15.7792 31.2776 15.6673 31.3385 15.538L32.262 13.5754Z" fill="#4D4D4D" stroke="white" stroke-width="0.903112" stroke-linecap="round" stroke-linejoin="round"/>
<path d="M4.26204 13.5754C4.27956 13.5382 4.30664 13.507 4.34021 13.4851C4.37378 13.4632 4.41251 13.4517 4.45202 13.4517C4.49153 13.4517 4.53026 13.4632 4.56383 13.4851C4.5974 13.507 4.62447 13.5382 4.642 13.5754L5.56592 15.538C5.62678 15.6672 5.71663 15.779 5.82775 15.8637C5.93886 15.9485 6.06792 16.0037 6.20386 16.0246L8.27008 16.3417C8.30923 16.3477 8.34601 16.365 8.37626 16.3917C8.40652 16.4184 8.42903 16.4535 8.44127 16.493C8.4535 16.5324 8.45497 16.5747 8.44549 16.615C8.43602 16.6552 8.41599 16.6919 8.38767 16.7209L6.8934 18.2469C6.79485 18.3476 6.72112 18.4719 6.67855 18.6092C6.63598 18.7464 6.62585 18.8924 6.64902 19.0346L7.00179 21.1907C7.0087 21.2317 7.00447 21.274 6.98959 21.3126C6.97471 21.3513 6.94977 21.3847 6.91761 21.4092C6.88546 21.4337 6.84739 21.4482 6.80775 21.4511C6.76811 21.454 6.72849 21.4452 6.69342 21.4256L4.84638 20.4071C4.72468 20.3401 4.58928 20.3051 4.45182 20.3051C4.31436 20.3051 4.17896 20.3401 4.05725 20.4071L2.21062 21.4256C2.17556 21.445 2.13599 21.4538 2.09641 21.4509C2.05684 21.4479 2.01885 21.4334 1.98676 21.4089C1.95467 21.3844 1.92978 21.351 1.91491 21.3124C1.90004 21.2738 1.89579 21.2317 1.90265 21.1907L2.25502 19.0351C2.27829 18.8928 2.26821 18.7466 2.22564 18.6093C2.18306 18.472 2.10927 18.3476 2.01064 18.2469L0.516374 16.7213C0.487814 16.6924 0.467576 16.6556 0.457964 16.6152C0.448353 16.5748 0.449755 16.5324 0.462011 16.4928C0.474266 16.4532 0.496883 16.418 0.527284 16.3912C0.557685 16.3644 0.594649 16.3471 0.633964 16.3413L2.69978 16.0246C2.83587 16.0038 2.96511 15.9487 3.07638 15.8639C3.18765 15.7792 3.27761 15.6673 3.33852 15.538L4.26204 13.5754Z" fill="#4D4D4D" stroke="white" stroke-width="0.903112" stroke-linecap="round" stroke-linejoin="round"/>
<path d="M18.262 28.5754C18.2796 28.5382 18.3066 28.507 18.3402 28.4851C18.3738 28.4632 18.4125 28.4517 18.452 28.4517C18.4915 28.4517 18.5303 28.4632 18.5638 28.4851C18.5974 28.507 18.6245 28.5382 18.642 28.5754L19.5659 30.538C19.6268 30.6672 19.7166 30.779 19.8277 30.8637C19.9389 30.9485 20.0679 31.0037 20.2039 31.0246L22.2701 31.3417C22.3092 31.3477 22.346 31.365 22.3763 31.3917C22.4065 31.4184 22.429 31.4535 22.4413 31.493C22.4535 31.5324 22.455 31.5747 22.4455 31.615C22.436 31.6552 22.416 31.6919 22.3877 31.7209L20.8934 33.2469C20.7949 33.3476 20.7211 33.4719 20.6786 33.6092C20.636 33.7464 20.6258 33.8924 20.649 34.0346L21.0018 36.1907C21.0087 36.2317 21.0045 36.274 20.9896 36.3126C20.9747 36.3513 20.9498 36.3847 20.9176 36.4092C20.8855 36.4337 20.8474 36.4482 20.8078 36.4511C20.7681 36.454 20.7285 36.4452 20.6934 36.4256L18.8464 35.4071C18.7247 35.3401 18.5893 35.3051 18.4518 35.3051C18.3144 35.3051 18.179 35.3401 18.0573 35.4071L16.2106 36.4256C16.1756 36.445 16.136 36.4538 16.0964 36.4509C16.0568 36.4479 16.0188 36.4334 15.9868 36.4089C15.9547 36.3844 15.9298 36.351 15.9149 36.3124C15.9 36.2738 15.8958 36.2317 15.9026 36.1907L16.255 34.0351C16.2783 33.8928 16.2682 33.7466 16.2256 33.6093C16.1831 33.472 16.1093 33.3476 16.0106 33.2469L14.5164 31.7213C14.4878 31.6924 14.4676 31.6556 14.458 31.6152C14.4484 31.5748 14.4498 31.5324 14.462 31.4928C14.4743 31.4532 14.4969 31.418 14.5273 31.3912C14.5577 31.3644 14.5946 31.3471 14.634 31.3413L16.6998 31.0246C16.8359 31.0038 16.9651 30.9487 17.0764 30.8639C17.1876 30.7792 17.2776 30.6673 17.3385 30.538L18.262 28.5754Z" fill="#4D4D4D" stroke="white" stroke-width="0.903112" stroke-linecap="round" stroke-linejoin="round"/>
<path d="M28.262 23.5754C28.2796 23.5382 28.3066 23.507 28.3402 23.4851C28.3738 23.4632 28.4125 23.4517 28.452 23.4517C28.4915 23.4517 28.5303 23.4632 28.5638 23.4851C28.5974 23.507 28.6245 23.5382 28.642 23.5754L29.5659 25.538C29.6268 25.6672 29.7166 25.779 29.8277 25.8637C29.9389 25.9485 30.0679 26.0037 30.2039 26.0246L32.2701 26.3417C32.3092 26.3477 32.346 26.365 32.3763 26.3917C32.4065 26.4184 32.429 26.4535 32.4413 26.493C32.4535 26.5324 32.455 26.5747 32.4455 26.615C32.436 26.6552 32.416 26.6919 32.3877 26.7209L30.8934 28.2469C30.7949 28.3476 30.7211 28.4719 30.6786 28.6092C30.636 28.7464 30.6258 28.8924 30.649 29.0346L31.0018 31.1907C31.0087 31.2317 31.0045 31.274 30.9896 31.3126C30.9747 31.3513 30.9498 31.3847 30.9176 31.4092C30.8855 31.4337 30.8474 31.4482 30.8078 31.4511C30.7681 31.454 30.7285 31.4452 30.6934 31.4256L28.8464 30.4071C28.7247 30.3401 28.5893 30.3051 28.4518 30.3051C28.3144 30.3051 28.179 30.3401 28.0573 30.4071L26.2106 31.4256C26.1756 31.445 26.136 31.4538 26.0964 31.4509C26.0568 31.4479 26.0188 31.4334 25.9868 31.4089C25.9547 31.3844 25.9298 31.351 25.9149 31.3124C25.9 31.2738 25.8958 31.2317 25.9026 31.1907L26.255 29.0351C26.2783 28.8928 26.2682 28.7466 26.2256 28.6093C26.1831 28.472 26.1093 28.3476 26.0106 28.2469L24.5164 26.7213C24.4878 26.6924 24.4676 26.6556 24.458 26.6152C24.4484 26.5748 24.4498 26.5324 24.462 26.4928C24.4743 26.4532 24.4969 26.418 24.5273 26.3912C24.5577 26.3644 24.5946 26.3471 24.634 26.3413L26.6998 26.0246C26.8359 26.0038 26.9651 25.9487 27.0764 25.8639C27.1876 25.7792 27.2776 25.6673 27.3385 25.538L28.262 23.5754Z" fill="#4D4D4D" stroke="white" stroke-width="0.903112" stroke-linecap="round" stroke-linejoin="round"/>
<path d="M8.26204 3.57536C8.27956 3.53822 8.30664 3.50696 8.34021 3.4851C8.37378 3.46324 8.41251 3.45166 8.45202 3.45166C8.49153 3.45166 8.53026 3.46324 8.56383 3.4851C8.5974 3.50696 8.62447 3.53822 8.642 3.57536L9.56592 5.53802C9.62678 5.6672 9.71663 5.77896 9.82775 5.86371C9.93886 5.94846 10.0679 6.00367 10.2039 6.02459L12.2701 6.34171C12.3092 6.34765 12.346 6.36497 12.3763 6.39171C12.4065 6.41844 12.429 6.45351 12.4413 6.49297C12.4535 6.53242 12.455 6.57468 12.4455 6.61496C12.436 6.65524 12.416 6.69194 12.3877 6.7209L10.8934 8.2469C10.7949 8.34761 10.7211 8.47193 10.6786 8.60916C10.636 8.74639 10.6258 8.89241 10.649 9.03465L11.0018 11.1907C11.0087 11.2317 11.0045 11.274 10.9896 11.3126C10.9747 11.3513 10.9498 11.3847 10.9176 11.4092C10.8855 11.4337 10.8474 11.4482 10.8078 11.4511C10.7681 11.454 10.7285 11.4452 10.6934 11.4256L8.84638 10.4071C8.72468 10.3401 8.58928 10.3051 8.45182 10.3051C8.31436 10.3051 8.17896 10.3401 8.05725 10.4071L6.21062 11.4256C6.17556 11.445 6.13599 11.4538 6.09641 11.4509C6.05684 11.4479 6.01885 11.4334 5.98676 11.4089C5.95467 11.3844 5.92978 11.351 5.91491 11.3124C5.90004 11.2738 5.89579 11.2317 5.90265 11.1907L6.25502 9.03507C6.27829 8.89276 6.26821 8.74665 6.22564 8.60933C6.18306 8.47202 6.10927 8.34764 6.01064 8.2469L4.51637 6.72132C4.48781 6.69239 4.46758 6.65563 4.45796 6.61523C4.44835 6.57482 4.44975 6.5324 4.46201 6.49279C4.47427 6.45318 4.49688 6.41798 4.52728 6.3912C4.55769 6.36441 4.59465 6.34712 4.63396 6.34129L6.69978 6.02459C6.83587 6.00383 6.96511 5.94869 7.07638 5.86393C7.18765 5.77917 7.27761 5.66733 7.33852 5.53802L8.26204 3.57536Z" fill="#4D4D4D" stroke="white" stroke-width="0.903112" stroke-linecap="round" stroke-linejoin="round"/>
<path d="M28.262 3.57536C28.2796 3.53822 28.3066 3.50696 28.3402 3.4851C28.3738 3.46324 28.4125 3.45166 28.452 3.45166C28.4915 3.45166 28.5303 3.46324 28.5638 3.4851C28.5974 3.50696 28.6245 3.53822 28.642 3.57536L29.5659 5.53802C29.6268 5.6672 29.7166 5.77896 29.8277 5.86371C29.9389 5.94846 30.0679 6.00367 30.2039 6.02459L32.2701 6.34171C32.3092 6.34765 32.346 6.36497 32.3763 6.39171C32.4065 6.41844 32.429 6.45351 32.4413 6.49297C32.4535 6.53242 32.455 6.57468 32.4455 6.61496C32.436 6.65524 32.416 6.69194 32.3877 6.7209L30.8934 8.2469C30.7949 8.34761 30.7211 8.47193 30.6786 8.60916C30.636 8.74639 30.6258 8.89241 30.649 9.03465L31.0018 11.1907C31.0087 11.2317 31.0045 11.274 30.9896 11.3126C30.9747 11.3513 30.9498 11.3847 30.9176 11.4092C30.8855 11.4337 30.8474 11.4482 30.8078 11.4511C30.7681 11.454 30.7285 11.4452 30.6934 11.4256L28.8464 10.4071C28.7247 10.3401 28.5893 10.3051 28.4518 10.3051C28.3144 10.3051 28.179 10.3401 28.0573 10.4071L26.2106 11.4256C26.1756 11.445 26.136 11.4538 26.0964 11.4509C26.0568 11.4479 26.0188 11.4334 25.9868 11.4089C25.9547 11.3844 25.9298 11.351 25.9149 11.3124C25.9 11.2738 25.8958 11.2317 25.9026 11.1907L26.255 9.03507C26.2783 8.89276 26.2682 8.74665 26.2256 8.60933C26.1831 8.47202 26.1093 8.34764 26.0106 8.2469L24.5164 6.72132C24.4878 6.69239 24.4676 6.65563 24.458 6.61523C24.4484 6.57482 24.4498 6.5324 24.462 6.49279C24.4743 6.45318 24.4969 6.41798 24.5273 6.3912C24.5577 6.36441 24.5946 6.34712 24.634 6.34129L26.6998 6.02459C26.8359 6.00383 26.9651 5.94869 27.0764 5.86393C27.1876 5.77917 27.2776 5.66733 27.3385 5.53802L28.262 3.57536Z" fill="#4D4D4D" stroke="white" stroke-width="0.903112" stroke-linecap="round" stroke-linejoin="round"/>
<path d="M8.26204 23.5754C8.27956 23.5382 8.30664 23.507 8.34021 23.4851C8.37378 23.4632 8.41251 23.4517 8.45202 23.4517C8.49153 23.4517 8.53026 23.4632 8.56383 23.4851C8.5974 23.507 8.62447 23.5382 8.642 23.5754L9.56592 25.538C9.62678 25.6672 9.71663 25.779 9.82775 25.8637C9.93886 25.9485 10.0679 26.0037 10.2039 26.0246L12.2701 26.3417C12.3092 26.3477 12.346 26.365 12.3763 26.3917C12.4065 26.4184 12.429 26.4535 12.4413 26.493C12.4535 26.5324 12.455 26.5747 12.4455 26.615C12.436 26.6552 12.416 26.6919 12.3877 26.7209L10.8934 28.2469C10.7949 28.3476 10.7211 28.4719 10.6786 28.6092C10.636 28.7464 10.6258 28.8924 10.649 29.0346L11.0018 31.1907C11.0087 31.2317 11.0045 31.274 10.9896 31.3126C10.9747 31.3513 10.9498 31.3847 10.9176 31.4092C10.8855 31.4337 10.8474 31.4482 10.8078 31.4511C10.7681 31.454 10.7285 31.4452 10.6934 31.4256L8.84638 30.4071C8.72468 30.3401 8.58928 30.3051 8.45182 30.3051C8.31436 30.3051 8.17896 30.3401 8.05725 30.4071L6.21062 31.4256C6.17556 31.445 6.13599 31.4538 6.09641 31.4509C6.05684 31.4479 6.01885 31.4334 5.98676 31.4089C5.95467 31.3844 5.92978 31.351 5.91491 31.3124C5.90004 31.2738 5.89579 31.2317 5.90265 31.1907L6.25502 29.0351C6.27829 28.8928 6.26821 28.7466 6.22564 28.6093C6.18306 28.472 6.10927 28.3476 6.01064 28.2469L4.51637 26.7213C4.48781 26.6924 4.46758 26.6556 4.45796 26.6152C4.44835 26.5748 4.44975 26.5324 4.46201 26.4928C4.47427 26.4532 4.49688 26.418 4.52728 26.3912C4.55769 26.3644 4.59465 26.3471 4.63396 26.3413L6.69978 26.0246C6.83587 26.0038 6.96511 25.9487 7.07638 25.8639C7.18765 25.7792 7.27761 25.6673 7.33852 25.538L8.26204 23.5754Z" fill="#4D4D4D" stroke="white" stroke-width="0.903112" stroke-linecap="round" stroke-linejoin="round"/>
</svg>
