<svg width="104" height="34" viewBox="0 0 104 34" fill="none" xmlns="http://www.w3.org/2000/svg">
<path d="M47.2377 27.3175C46.4804 27.3175 45.6038 27.2283 44.6075 27.0499C43.631 26.8716 42.7643 26.5347 42.007 26.0392L42.0968 27.0796H40.5425L40.692 20.7478H41.8576C41.8775 21.9567 42.1266 22.9575 42.6049 23.7503C43.103 24.543 43.7705 25.1275 44.6075 25.5041C45.4443 25.8807 46.3908 26.069 47.4469 26.069C48.2241 26.069 48.9514 25.9302 49.6289 25.6528C50.3063 25.3753 50.8643 24.9592 51.3027 24.4042C51.741 23.8493 51.9801 23.1756 52.02 22.3829C52.0798 21.392 51.8407 20.5794 51.3027 19.9452C50.7845 19.2912 50.1071 18.7363 49.2702 18.2805C48.4333 17.8248 47.5465 17.3788 46.61 16.9429C45.6934 16.5068 44.8167 16.0412 43.9798 15.5456C43.1428 15.0304 42.4653 14.3962 41.9473 13.6431C41.4491 12.8901 41.2299 11.9487 41.2897 10.8191C41.3295 10.3039 41.4491 9.74898 41.6484 9.15442C41.8676 8.55987 42.2163 7.98517 42.6945 7.43025C43.1728 6.87533 43.8104 6.42943 44.6075 6.09254C45.4045 5.73582 46.4107 5.55746 47.6263 5.55746C48.3835 5.55746 49.2204 5.66648 50.137 5.88445C51.0735 6.08266 51.9404 6.47899 52.7374 7.07353L52.6776 5.79528H54.202L53.8732 12.3352H52.7971C52.7971 11.3839 52.6178 10.4822 52.2591 9.63007C51.9005 8.7778 51.3525 8.08424 50.6152 7.54915C49.878 7.01407 48.9214 6.74654 47.7458 6.74654C46.5104 6.74654 45.534 7.10326 44.8167 7.8167C44.0994 8.5103 43.7207 9.32285 43.6809 10.2543C43.641 11.0272 43.8104 11.6911 44.189 12.246C44.5875 12.7811 45.1156 13.2567 45.7732 13.6728C46.4307 14.0692 47.1481 14.4458 47.9252 14.8025C48.7023 15.179 49.4894 15.5655 50.2865 15.9618C51.0835 16.3384 51.8108 16.7843 52.4684 17.2995C53.1459 17.795 53.6739 18.3995 54.0525 19.1128C54.4311 19.8263 54.5905 20.6883 54.5307 21.6991C54.4908 22.7891 54.1721 23.7601 53.5743 24.6123C52.9765 25.4645 52.1396 26.1283 51.0636 26.604C50.0075 27.0796 48.7322 27.3175 47.2377 27.3175ZM61.3876 27.1688C60.5904 27.1688 59.9529 26.9905 59.4747 26.6337C58.9965 26.277 58.6476 25.8014 58.4285 25.2069C58.2291 24.6123 58.1297 23.9782 58.1297 23.3043C58.1297 22.1945 58.2096 21.0748 58.3688 19.9452C58.528 18.8156 58.6878 17.7752 58.847 16.8239C59.0063 15.8529 59.0861 15.0899 59.0861 14.535C59.0861 14.1584 59.0361 13.8314 58.9367 13.5539C58.8568 13.2765 58.6378 13.1378 58.2792 13.1378C57.9601 13.1378 57.6015 13.3558 57.2031 13.7918C56.8244 14.2278 56.4857 14.9709 56.1868 16.0213L55.3499 15.8429C55.4096 15.4862 55.5292 15.0799 55.7086 14.6241C55.8879 14.1485 56.1271 13.6828 56.4259 13.227C56.7448 12.7711 57.1232 12.3946 57.5617 12.0973C58.0199 11.8001 58.5481 11.6514 59.1459 11.6514C59.9431 11.6514 60.541 11.8992 60.9393 12.3946C61.3577 12.8901 61.567 13.6035 61.567 14.535C61.567 15.0899 61.517 15.7736 61.4175 16.5861C61.3181 17.3986 61.1986 18.2508 61.0589 19.1426C60.9393 20.0145 60.8295 20.8667 60.73 21.6991C60.6306 22.5314 60.5806 23.2648 60.5806 23.8989C60.5806 24.1169 60.6105 24.3745 60.6703 24.6718C60.7502 24.969 60.8893 25.2267 61.0887 25.4447C61.3078 25.6626 61.6066 25.7717 61.9854 25.7717C62.5435 25.7717 63.0914 25.514 63.6293 24.9988C64.1673 24.4835 64.6755 23.7898 65.1537 22.9179C65.632 22.0459 66.0601 21.0848 66.4389 20.0344C66.8177 18.9642 67.1063 17.8742 67.3057 16.7645C67.5247 15.6348 67.6345 14.5647 67.6345 13.5539C67.6345 13.2567 67.6248 12.9892 67.6046 12.7514C67.6046 12.4937 67.5948 12.2361 67.5747 11.9784H70.0854C70.1055 12.1172 70.1153 12.246 70.1153 12.3649C70.1153 12.4639 70.1153 12.5928 70.1153 12.7514C70.1153 13.0882 70.0952 13.4945 70.0556 13.9701C70.0159 14.4259 69.9561 15.0403 69.8762 15.8132C69.7964 16.5662 69.6768 17.5671 69.5176 18.8156C69.3779 19.965 69.2687 20.8667 69.1888 21.5207C69.129 22.1748 69.079 22.6702 69.0394 23.0071C68.9997 23.3242 68.9697 23.5719 68.9496 23.7503C68.9496 23.9286 68.9496 24.1268 68.9496 24.3447C68.9496 24.7015 68.9997 25.0087 69.0991 25.2663C69.2186 25.5239 69.4376 25.6528 69.7567 25.6528C70.0952 25.6528 70.4643 25.4447 70.8626 25.0285C71.281 24.5925 71.6397 23.8493 71.9386 22.799L72.7755 22.9773C72.7158 23.3341 72.5864 23.7503 72.3869 24.2259C72.2076 24.6817 71.9588 25.1376 71.6397 25.5933C71.3207 26.0491 70.9322 26.4256 70.474 26.7229C70.0159 27.0202 69.4877 27.1688 68.8899 27.1688C68.0926 27.1688 67.5052 26.9212 67.1264 26.4256C66.7678 25.9302 66.5884 25.2861 66.5884 24.4934C66.5884 23.9187 66.6384 23.2945 66.7379 22.6206C66.8574 21.9468 66.9867 21.2433 67.1264 20.5101H67.0367C66.3591 22.3135 65.7118 23.7007 65.0939 24.6718C64.4761 25.6231 63.8684 26.277 63.2706 26.6337C62.6729 26.9905 62.0452 27.1688 61.3876 27.1688ZM75.9668 11.6514C76.8037 11.6514 77.4314 11.9388 77.8498 12.5135C78.2683 13.0684 78.4775 13.8116 78.4775 14.7431C78.4775 15.3375 78.4177 16.0213 78.2982 16.7942C78.1987 17.5473 78.0689 18.3598 77.9096 19.2318C77.7504 20.1037 77.6107 20.9856 77.4911 21.8775C77.3917 22.7494 77.3417 23.6016 77.3417 24.4339C77.3417 24.8303 77.4113 25.1376 77.551 25.3555C77.7101 25.5734 77.9493 25.6825 78.2683 25.6825C78.6068 25.6825 78.9759 25.4645 79.3741 25.0285C79.7926 24.5925 80.1513 23.8493 80.4502 22.799L81.2871 22.9773C81.2072 23.3935 81.0681 23.8493 80.8687 24.3447C80.6893 24.8204 80.4502 25.2762 80.1513 25.7122C79.8525 26.1283 79.484 26.4752 79.0454 26.7526C78.6269 27.03 78.1389 27.1688 77.5808 27.1688C76.6641 27.1688 75.9869 26.931 75.5484 26.4554C75.1098 25.9798 74.8908 25.2861 74.8908 24.3745C74.8908 23.5025 74.9505 22.6603 75.0701 21.8477C75.1896 21.0154 75.319 20.2028 75.4586 19.4101C75.6179 18.5976 75.7576 17.7851 75.8771 16.9726C75.9967 16.1601 76.0565 15.3277 76.0565 14.4755C76.0565 14.2178 75.9967 13.9305 75.8771 13.6134C75.7777 13.2963 75.5581 13.1378 75.2195 13.1378C74.9006 13.1378 74.5321 13.3558 74.1136 13.7918C73.6952 14.2278 73.3365 14.9709 73.0376 16.0213L72.2007 15.8429C72.2605 15.4862 72.3801 15.0799 72.5594 14.6241C72.7388 14.1485 72.9779 13.6828 73.2767 13.227C73.5957 12.7711 73.974 12.3946 74.4125 12.0973C74.8511 11.8001 75.369 11.6514 75.9668 11.6514ZM77.6705 5.23047C78.1286 5.23047 78.5074 5.389 78.8063 5.70609C79.1052 6.00337 79.2546 6.40965 79.2546 6.9249C79.2546 7.42036 79.0954 7.82659 78.7764 8.14369C78.4574 8.44096 78.0792 8.58959 77.6406 8.58959C77.202 8.58959 76.8238 8.44096 76.5048 8.14369C76.2059 7.82659 76.0565 7.42036 76.0565 6.9249C76.0565 6.40965 76.2157 6.00337 76.5347 5.70609C76.8537 5.389 77.2319 5.23047 77.6705 5.23047ZM87.2719 7.78697L86.7339 11.9784H91.4866L91.3967 13.1081L86.6143 13.1675C86.5345 13.9999 86.435 14.862 86.3148 15.7537C86.2154 16.6257 86.1258 17.4978 86.0464 18.3697C85.9665 19.2417 85.897 20.0839 85.8372 20.8964C85.7775 21.6892 85.7476 22.4126 85.7476 23.0665C85.7476 23.4431 85.7671 23.8394 85.8073 24.2556C85.8671 24.652 85.9964 24.9889 86.1958 25.2663C86.3948 25.5239 86.7138 25.6528 87.1524 25.6528C87.3512 25.6528 87.5903 25.6131 87.8697 25.5339C88.1683 25.4545 88.4971 25.2663 88.8558 24.969C89.2145 24.6718 89.5829 24.206 89.9619 23.5719L90.7383 24.0773C90.1611 25.0879 89.5335 25.8609 88.8558 26.3959C88.1983 26.9112 87.3915 27.1688 86.435 27.1688C85.6579 27.1688 85.0399 27.0103 84.5813 26.6932C84.1432 26.3563 83.8243 25.9203 83.6254 25.3852C83.4259 24.8501 83.3259 24.2754 83.3259 23.6611C83.3259 22.908 83.3558 21.9964 83.4161 20.9262C83.476 19.8362 83.565 18.6373 83.6846 17.3292C83.8047 16.0015 83.9438 14.6241 84.1036 13.1973L81.4429 13.227L81.5326 11.9784C82.9075 11.9784 83.9237 11.6118 84.5813 10.8786C85.2394 10.1453 85.7573 9.11475 86.1356 7.78697H87.2719ZM99.2055 11.6514C99.923 11.6514 100.601 11.7605 101.238 11.9784C101.875 12.1965 102.393 12.5531 102.792 13.0486C103.19 13.5441 103.39 14.2179 103.39 15.0701C103.39 15.8826 103.111 16.5861 102.553 17.1806C101.995 17.7752 101.268 18.2706 100.371 18.667C99.4743 19.0435 98.5181 19.3507 97.5019 19.5885C96.4857 19.8263 95.5091 19.9947 94.5722 20.0939C94.5722 21.3226 94.6921 22.3531 94.931 23.1854C95.1901 24.0178 95.5682 24.642 96.067 25.0582C96.565 25.4744 97.2031 25.6825 97.9796 25.6825C98.5577 25.6825 99.1359 25.5537 99.7132 25.296C100.311 25.0384 100.879 24.652 101.417 24.1367C101.955 23.6016 102.443 22.9179 102.882 22.0856L103.868 22.6503C103.31 23.6809 102.712 24.5331 102.074 25.2069C101.437 25.8807 100.739 26.3761 99.982 26.6932C99.2258 27.0103 98.3885 27.1688 97.4719 27.1688C95.5788 27.1688 94.1836 26.5842 93.2872 25.415C92.3909 24.2259 91.9423 22.6702 91.9423 20.7478C91.9423 19.5984 92.0912 18.4787 92.3909 17.3887C92.6897 16.2987 93.1374 15.3277 93.7358 14.4755C94.3334 13.6035 95.0905 12.9198 96.0071 12.4243C96.9237 11.9091 97.9893 11.6514 99.2055 11.6514ZM98.7869 12.6622C97.8703 12.6622 97.1132 12.9693 96.5156 13.5837C95.9375 14.1981 95.4889 14.9907 95.1698 15.9618C94.871 16.9329 94.6824 17.9535 94.6022 19.0237C95.6581 18.885 96.6646 18.6373 97.6209 18.2805C98.578 17.9238 99.3642 17.468 99.982 16.9131C100.601 16.3384 100.909 15.6745 100.909 14.9214C100.909 14.2873 100.729 13.7522 100.371 13.3162C100.032 12.8801 99.5043 12.6622 98.7869 12.6622Z" fill="#171717"/>
<path d="M2.02295 27.0257V6.73663H5.73867V23.9447H14.7726V27.0257H2.02295ZM17.2732 27.0257V11.8089H20.8988V27.0257H17.2732ZM19.096 9.64923C18.5218 9.64923 18.0277 9.46101 17.6137 9.08457C17.1998 8.70147 16.9928 8.24245 16.9928 7.70749C16.9928 7.16593 17.1998 6.70691 17.6137 6.33045C18.0277 5.94739 18.5218 5.75586 19.096 5.75586C19.6769 5.75586 20.171 5.94739 20.5783 6.33045C20.9922 6.70691 21.1993 7.16593 21.1993 7.70749C21.1993 8.24245 20.9922 8.70147 20.5783 9.08457C20.171 9.46101 19.6769 9.64923 19.096 9.64923ZM28.4898 27.3328C27.515 27.3328 26.6369 27.1611 25.8557 26.8177C25.0812 26.4676 24.4669 25.9524 24.0129 25.2721C23.5655 24.5919 23.3418 23.7531 23.3418 22.7559C23.3418 21.8973 23.5021 21.1873 23.8226 20.6259C24.1431 20.0646 24.5804 19.6154 25.1346 19.2786C25.6888 18.9418 26.3131 18.6875 27.0075 18.5157C27.7085 18.3375 28.433 18.2087 29.1808 18.1294C30.0822 18.0369 30.8134 17.9544 31.3742 17.8818C31.9351 17.8025 32.3423 17.6836 32.5961 17.5251C32.8565 17.36 32.9867 17.1057 32.9867 16.7623V16.7028C32.9867 15.9565 32.763 15.3787 32.3156 14.9692C31.8683 14.5597 31.224 14.3549 30.3826 14.3549C29.4947 14.3549 28.7902 14.5465 28.2694 14.9295C27.7553 15.3126 27.4081 15.765 27.2278 16.2867L23.8426 15.8113C24.1097 14.8866 24.5504 14.1139 25.1647 13.4931C25.779 12.8656 26.5301 12.3967 27.4181 12.0862C28.3062 11.7693 29.2877 11.6108 30.3626 11.6108C31.1038 11.6108 31.8416 11.6966 32.5761 11.8683C33.3105 12.04 33.9816 12.3241 34.5892 12.7203C35.1968 13.11 35.6842 13.6416 36.0514 14.3153C36.4253 14.989 36.6122 15.831 36.6122 16.8415V27.0257H33.1269V24.9354H33.0067C32.7864 25.358 32.4759 25.7543 32.0753 26.1242C31.6813 26.4874 31.1839 26.7813 30.583 27.0059C29.9888 27.2238 29.291 27.3328 28.4898 27.3328ZM29.4312 24.6975C30.159 24.6975 30.79 24.5556 31.3241 24.2716C31.8583 23.981 32.2689 23.598 32.556 23.1224C32.8498 22.6469 32.9967 22.1285 32.9967 21.567V19.7739C32.8832 19.8664 32.6896 19.9523 32.4158 20.0315C32.1487 20.1108 31.8483 20.1801 31.5144 20.2395C31.1805 20.299 30.85 20.3518 30.5229 20.398C30.1957 20.4443 29.9119 20.4839 29.6716 20.5169C29.1308 20.5896 28.6466 20.7085 28.2194 20.8736C27.792 21.0387 27.4549 21.2698 27.2078 21.567C26.9608 21.8577 26.8372 22.2341 26.8372 22.6964C26.8372 23.3569 27.0809 23.8555 27.5684 24.1923C28.0558 24.5292 28.6767 24.6975 29.4312 24.6975Z" fill="black"/>
</svg>
