<svg width="273" height="77" viewBox="0 0 273 77" fill="none" xmlns="http://www.w3.org/2000/svg">
<g clip-path="url(#clip0_835_7175)">
<path d="M37.9729 17.1236C33.8098 9.64782 32.2987 7.05854 31.9597 6.82026C31.8024 6.70969 31.4636 6.55863 31.2069 6.48463C30.3479 6.23695 30.2284 6.28749 26.3564 8.53603C24.1091 9.84123 22.8426 10.6215 22.6748 10.8045C22.4653 11.033 22.3887 11.194 22.2505 11.6966C22.1067 12.2195 22.0948 12.3708 22.1697 12.7241C22.2357 13.0357 23.2563 14.9163 26.2893 20.3144C28.5288 24.3004 30.4366 27.6105 30.5807 27.7605C30.7235 27.909 31.0058 28.1145 31.2082 28.2173C31.6926 28.4632 32.3774 28.4807 32.9331 28.2614C33.1508 28.1755 34.7904 27.2565 36.5767 26.2192C40.2406 24.0917 40.3369 24.0168 40.5806 23.1037C40.8189 22.2107 40.8661 22.319 37.9729 17.1236Z" fill="#ED2915"/>
<path d="M18.9987 20.5442C14.5344 13.2444 12.9189 10.7188 12.5705 10.4945C12.4089 10.3905 12.0642 10.2533 11.8047 10.1899C10.9363 9.97741 10.819 10.0328 7.04184 12.4373C4.84955 13.833 3.61592 14.6642 3.45574 14.8538C3.25568 15.0907 3.18573 15.2547 3.06815 15.7625C2.9458 16.2909 2.94007 16.4426 3.02926 16.7925C3.1079 17.1012 4.20436 18.9385 7.45482 24.2086C9.85494 28.0999 11.896 31.3296 12.0462 31.4736C12.1949 31.6162 12.4853 31.81 12.6917 31.9044C13.1858 32.1304 13.8706 32.12 14.417 31.8782C14.631 31.7835 16.2318 30.7985 17.9743 29.6892C21.5485 27.4141 21.6416 27.3354 21.8479 26.4131C22.0496 25.5112 22.1012 25.6174 18.9987 20.5442Z" fill="#ED2915"/>
<circle cx="11.614" cy="13.894" r="9.04834" fill="#ED2915"/>
<circle cx="30.4226" cy="9.04834" r="9.04834" fill="#ED2915"/>
<path d="M66.7571 52.848H79.9171V58H60.3731V19.08H66.7571V52.848ZM88.5039 23.056C87.3466 23.056 86.3759 22.664 85.5919 21.88C84.8079 21.096 84.4159 20.1253 84.4159 18.968C84.4159 17.8107 84.8079 16.84 85.5919 16.056C86.3759 15.272 87.3466 14.88 88.5039 14.88C89.6239 14.88 90.5759 15.272 91.3599 16.056C92.1439 16.84 92.5359 17.8107 92.5359 18.968C92.5359 20.1253 92.1439 21.096 91.3599 21.88C90.5759 22.664 89.6239 23.056 88.5039 23.056ZM91.6399 27.144V58H85.2559V27.144H91.6399ZM97.8935 42.432C97.8935 39.3333 98.5282 36.5893 99.7975 34.2C101.104 31.8107 102.859 29.9627 105.062 28.656C107.302 27.312 109.766 26.64 112.454 26.64C114.88 26.64 116.99 27.1253 118.782 28.096C120.611 29.0293 122.067 30.2053 123.15 31.624V27.144H129.59V58H123.15V53.408C122.067 54.864 120.592 56.0773 118.726 57.048C116.859 58.0187 114.731 58.504 112.342 58.504C109.691 58.504 107.264 57.832 105.062 56.488C102.859 55.1067 101.104 53.2027 99.7975 50.776C98.5282 48.312 97.8935 45.5307 97.8935 42.432ZM123.15 42.544C123.15 40.416 122.702 38.568 121.806 37C120.947 35.432 119.808 34.2373 118.39 33.416C116.971 32.5947 115.44 32.184 113.798 32.184C112.155 32.184 110.624 32.5947 109.206 33.416C107.787 34.2 106.63 35.376 105.734 36.944C104.875 38.4747 104.446 40.304 104.446 42.432C104.446 44.56 104.875 46.4267 105.734 48.032C106.63 49.6373 107.787 50.8693 109.206 51.728C110.662 52.5493 112.192 52.96 113.798 52.96C115.44 52.96 116.971 52.5493 118.39 51.728C119.808 50.9067 120.947 49.712 121.806 48.144C122.702 46.5387 123.15 44.672 123.15 42.544ZM135.847 38.456C135.847 34.648 136.724 31.232 138.479 28.208C140.271 25.184 142.679 22.832 145.703 21.152C148.764 19.4347 152.105 18.576 155.727 18.576C159.871 18.576 163.548 19.6027 166.759 21.656C170.007 23.672 172.359 26.5467 173.815 30.28H166.143C165.135 28.2267 163.735 26.696 161.943 25.688C160.151 24.68 158.079 24.176 155.727 24.176C153.151 24.176 150.855 24.7547 148.839 25.912C146.823 27.0693 145.236 28.7307 144.079 30.896C142.959 33.0613 142.399 35.5813 142.399 38.456C142.399 41.3307 142.959 43.8507 144.079 46.016C145.236 48.1813 146.823 49.8613 148.839 51.056C150.855 52.2133 153.151 52.792 155.727 52.792C158.079 52.792 160.151 52.288 161.943 51.28C163.735 50.272 165.135 48.7413 166.143 46.688H173.815C172.359 50.4213 170.007 53.296 166.759 55.312C163.548 57.328 159.871 58.336 155.727 58.336C152.068 58.336 148.727 57.496 145.703 55.816C142.679 54.0987 140.271 51.728 138.479 48.704C136.724 45.68 135.847 42.264 135.847 38.456ZM197.247 26.64C199.599 26.64 201.69 27.144 203.519 28.152C205.386 29.16 206.842 30.6533 207.887 32.632C208.97 34.6107 209.511 37 209.511 39.8V58H203.183V40.752C203.183 37.9893 202.492 35.88 201.111 34.424C199.73 32.9307 197.844 32.184 195.455 32.184C193.066 32.184 191.162 32.9307 189.743 34.424C188.362 35.88 187.671 37.9893 187.671 40.752V58H181.287V16.56H187.671V30.728C188.754 29.4213 190.116 28.4133 191.759 27.704C193.439 26.9947 195.268 26.64 197.247 26.64ZM215.526 42.432C215.526 39.3333 216.161 36.5893 217.43 34.2C218.737 31.8107 220.492 29.9627 222.694 28.656C224.934 27.312 227.398 26.64 230.086 26.64C232.513 26.64 234.622 27.1253 236.414 28.096C238.244 29.0293 239.7 30.2053 240.782 31.624V27.144H247.222V58H240.782V53.408C239.7 54.864 238.225 56.0773 236.358 57.048C234.492 58.0187 232.364 58.504 229.974 58.504C227.324 58.504 224.897 57.832 222.694 56.488C220.492 55.1067 218.737 53.2027 217.43 50.776C216.161 48.312 215.526 45.5307 215.526 42.432ZM240.782 42.544C240.782 40.416 240.334 38.568 239.438 37C238.58 35.432 237.441 34.2373 236.022 33.416C234.604 32.5947 233.073 32.184 231.43 32.184C229.788 32.184 228.257 32.5947 226.838 33.416C225.42 34.2 224.262 35.376 223.366 36.944C222.508 38.4747 222.078 40.304 222.078 42.432C222.078 44.56 222.508 46.4267 223.366 48.032C224.262 49.6373 225.42 50.8693 226.838 51.728C228.294 52.5493 229.825 52.96 231.43 52.96C233.073 52.96 234.604 52.5493 236.022 51.728C237.441 50.9067 238.58 49.712 239.438 48.144C240.334 46.5387 240.782 44.672 240.782 42.544ZM263.055 32.352V49.432C263.055 50.5893 263.317 51.4293 263.839 51.952C264.399 52.4373 265.333 52.68 266.639 52.68H270.559V58H265.519C262.645 58 260.442 57.328 258.911 55.984C257.381 54.64 256.615 52.456 256.615 49.432V32.352H252.975V27.144H256.615V19.472H263.055V27.144H270.559V32.352H263.055Z" fill="black"/>
</g>
<defs>
<clipPath id="clip0_835_7175">
<rect width="273.173" height="77" fill="white"/>
</clipPath>
</defs>
</svg>
