<svg width="118" height="39" viewBox="0 0 118 39" fill="none" xmlns="http://www.w3.org/2000/svg">
<path d="M53.5965 31.3351C52.7373 31.3351 51.7426 31.2328 50.6122 31.0282C49.5043 30.8236 48.5209 30.4372 47.6617 29.8689L47.7635 31.0623H46L46.1696 23.7993H47.4922C47.5147 25.186 47.7974 26.334 48.34 27.2433C48.9052 28.1526 49.6626 28.8231 50.6122 29.2551C51.5617 29.687 52.6356 29.903 53.8339 29.903C54.7157 29.903 55.5409 29.7438 56.3096 29.4256C57.0782 29.1073 57.7113 28.63 58.2087 27.9934C58.706 27.3569 58.9773 26.5841 59.0226 25.6748C59.0904 24.5382 58.8191 23.6061 58.2087 22.8787C57.6208 22.1285 56.8522 21.492 55.9026 20.9692C54.953 20.4464 53.9469 19.9349 52.8843 19.4348C51.8443 18.9346 50.8496 18.4005 49.9 17.8321C48.9504 17.2411 48.1817 16.5136 47.5939 15.6498C47.0287 14.786 46.78 13.7062 46.8478 12.4105C46.893 11.8195 47.0287 11.183 47.2548 10.501C47.5035 9.81902 47.8991 9.1598 48.4417 8.52328C48.9844 7.88675 49.7078 7.37528 50.6122 6.98885C51.5165 6.57967 52.6582 6.37508 54.0374 6.37508C54.8965 6.37508 55.8461 6.50013 56.8861 6.75016C57.9487 6.97751 58.9322 7.43213 59.8365 8.1141L59.7687 6.64787H61.4983L61.1252 14.1495H59.9043C59.9043 13.0584 59.7009 12.0241 59.2939 11.0466C58.887 10.069 58.2652 9.27344 57.4287 8.65967C56.5922 8.0459 55.5069 7.73902 54.173 7.73902C52.7713 7.73902 51.6635 8.1482 50.8496 8.96656C50.0357 9.76216 49.6061 10.6942 49.5609 11.7626C49.5156 12.6492 49.7078 13.4107 50.1374 14.0472C50.5895 14.661 51.1887 15.2066 51.9348 15.6839C52.6809 16.1386 53.4948 16.5705 54.3765 16.9797C55.2583 17.4116 56.1513 17.8549 57.0557 18.3095C57.96 18.7414 58.7852 19.2529 59.5313 19.8439C60.3 20.4123 60.8991 21.1056 61.3287 21.9239C61.7582 22.7423 61.9391 23.7311 61.8713 24.8905C61.826 26.1408 61.4644 27.2546 60.7861 28.2321C60.1078 29.2096 59.1583 29.9711 57.9374 30.5167C56.7391 31.0623 55.2922 31.3351 53.5965 31.3351ZM69.6512 31.1646C68.7467 31.1646 68.0234 30.96 67.4808 30.5508C66.9382 30.1416 66.5423 29.5961 66.2938 28.9141C66.0675 28.2321 65.9547 27.5047 65.9547 26.7318C65.9547 25.4588 66.0454 24.1744 66.226 22.8787C66.4067 21.583 66.588 20.3895 66.7686 19.2984C66.9493 18.1845 67.0399 17.3093 67.0399 16.6728C67.0399 16.2409 66.9832 15.8658 66.8704 15.5475C66.7797 15.2293 66.5312 15.0702 66.1243 15.0702C65.7623 15.0702 65.3554 15.3202 64.9034 15.8203C64.4737 16.3205 64.0894 17.1729 63.7503 18.3777L62.8007 18.1731C62.8685 17.7639 63.0042 17.2979 63.2077 16.7751C63.4112 16.2295 63.6825 15.6953 64.0216 15.1725C64.3834 14.6496 64.8127 14.2177 65.3103 13.8767C65.8301 13.5357 66.4295 13.3652 67.1077 13.3652C68.0123 13.3652 68.6906 13.6494 69.1425 14.2177C69.6173 14.786 69.8547 15.6044 69.8547 16.6728C69.8547 17.3093 69.798 18.0936 69.6851 19.0256C69.5723 19.9576 69.4367 20.9351 69.2782 21.958C69.1425 22.9582 69.018 23.9357 68.9051 24.8905C68.7923 25.8452 68.7356 26.6864 68.7356 27.4138C68.7356 27.6638 68.7695 27.9593 68.8373 28.3003C68.928 28.6413 69.0858 28.9369 69.3121 29.1869C69.5606 29.4369 69.8997 29.562 70.3295 29.562C70.9627 29.562 71.5843 29.2664 72.1947 28.6754C72.8051 28.0844 73.3817 27.2887 73.9243 26.2885C74.4669 25.2883 74.9527 24.1858 75.3825 22.981C75.8123 21.7534 76.1397 20.5031 76.366 19.2302C76.6145 17.9344 76.739 16.7069 76.739 15.5475C76.739 15.2066 76.728 14.8997 76.7051 14.6269C76.7051 14.3313 76.694 14.0359 76.6712 13.7403H79.5199C79.5427 13.8995 79.5538 14.0472 79.5538 14.1836C79.5538 14.2972 79.5538 14.445 79.5538 14.6269C79.5538 15.0133 79.531 15.4793 79.486 16.0249C79.441 16.5477 79.3732 17.2525 79.2825 18.139C79.1919 19.0028 79.0562 20.1508 78.8756 21.583C78.7171 22.9014 78.5932 23.9357 78.5025 24.6859C78.4347 25.4361 78.378 26.0044 78.333 26.3908C78.288 26.7546 78.254 27.0387 78.2312 27.2433C78.2312 27.4479 78.2312 27.6752 78.2312 27.9252C78.2312 28.3344 78.288 28.6868 78.4008 28.9823C78.5364 29.2778 78.7849 29.4256 79.1469 29.4256C79.531 29.4256 79.9497 29.1869 80.4017 28.7095C80.8764 28.2094 81.2834 27.3569 81.6225 26.1521L82.5721 26.3567C82.5043 26.7659 82.3575 27.2433 82.1312 27.7889C81.9277 28.3117 81.6454 28.8346 81.2834 29.3574C80.9214 29.8802 80.4806 30.3121 79.9608 30.6531C79.441 30.9941 78.8417 31.1646 78.1634 31.1646C77.2588 31.1646 76.5923 30.8805 76.1625 30.3121C75.7556 29.7438 75.5521 29.005 75.5521 28.0957C75.5521 27.4365 75.6088 26.7205 75.7217 25.9475C75.8573 25.1746 76.004 24.3677 76.1625 23.5266H76.0608C75.2919 25.5952 74.5575 27.1864 73.8564 28.3003C73.1554 29.3915 72.466 30.1416 71.7877 30.5508C71.1095 30.96 70.3973 31.1646 69.6512 31.1646ZM86.193 13.3652C87.1425 13.3652 87.8547 13.6949 88.3295 14.3541C88.8043 14.9906 89.0417 15.8431 89.0417 16.9115C89.0417 17.5934 88.9738 18.3777 88.8382 19.2643C88.7253 20.1281 88.578 21.0601 88.3973 22.0603C88.2167 23.0605 88.0582 24.0721 87.9225 25.0951C87.8097 26.0953 87.753 27.0728 87.753 28.0275C87.753 28.4822 87.8319 28.8346 87.9904 29.0846C88.171 29.3346 88.4423 29.4597 88.8043 29.4597C89.1884 29.4597 89.6071 29.2096 90.059 28.7095C90.5338 28.2094 90.9408 27.3569 91.2799 26.1521L92.2295 26.3567C92.1388 26.8341 91.981 27.3569 91.7547 27.9252C91.5512 28.4708 91.2799 28.9936 90.9408 29.4938C90.6017 29.9711 90.1836 30.369 89.686 30.6872C89.2112 31.0054 88.6575 31.1646 88.0243 31.1646C86.9841 31.1646 86.2158 30.8918 85.7182 30.3462C85.2206 29.8007 84.9721 29.005 84.9721 27.9593C84.9721 26.9591 85.0399 25.993 85.1756 25.061C85.3112 24.1062 85.458 23.1742 85.6164 22.2649C85.7971 21.3329 85.9556 20.4009 86.0912 19.4689C86.2269 18.5369 86.2947 17.5821 86.2947 16.6046C86.2947 16.309 86.2269 15.9795 86.0912 15.6157C85.9784 15.252 85.7293 15.0702 85.3451 15.0702C84.9832 15.0702 84.5651 15.3202 84.0903 15.8203C83.6156 16.3205 83.2086 17.1729 82.8695 18.3777L81.9199 18.1731C81.9877 17.7639 82.1234 17.2979 82.3269 16.7751C82.5304 16.2295 82.8017 15.6953 83.1408 15.1725C83.5027 14.6496 83.9319 14.2177 84.4295 13.8767C84.9271 13.5357 85.5147 13.3652 86.193 13.3652ZM88.126 6C88.6458 6 89.0756 6.18184 89.4147 6.54557C89.7538 6.88656 89.9234 7.35259 89.9234 7.94361C89.9234 8.51193 89.7427 8.9779 89.3808 9.34164C89.0188 9.68262 88.5897 9.85311 88.0921 9.85311C87.5945 9.85311 87.1653 9.68262 86.8034 9.34164C86.4643 8.9779 86.2947 8.51193 86.2947 7.94361C86.2947 7.35259 86.4754 6.88656 86.8373 6.54557C87.1993 6.18184 87.6284 6 88.126 6ZM99.0199 8.93246L98.4095 13.7403H103.802L103.7 15.0361L98.2738 15.1043C98.1832 16.059 98.0704 17.0479 97.934 18.0708C97.8212 19.071 97.7195 20.0713 97.6295 21.0715C97.5388 22.0717 97.4599 23.0378 97.3921 23.9698C97.3243 24.8791 97.2904 25.7089 97.2904 26.459C97.2904 26.891 97.3125 27.3456 97.3582 27.823C97.426 28.2776 97.5727 28.6641 97.799 28.9823C98.0247 29.2778 98.3867 29.4256 98.8843 29.4256C99.1099 29.4256 99.3812 29.3801 99.6982 29.2892C100.037 29.1982 100.41 28.9823 100.817 28.6413C101.224 28.3003 101.642 27.7661 102.072 27.0387L102.953 27.6184C102.298 28.7777 101.586 29.6643 100.817 30.278C100.071 30.8691 99.1556 31.1646 98.0704 31.1646C97.1886 31.1646 96.4875 30.9828 95.9671 30.619C95.4701 30.2326 95.1082 29.7325 94.8825 29.1187C94.6562 28.5049 94.5427 27.8457 94.5427 27.141C94.5427 26.2772 94.5767 25.2315 94.6451 24.0039C94.713 22.7536 94.814 21.3784 94.9497 19.878C95.086 18.355 95.2438 16.7751 95.4251 15.1384L92.4062 15.1725L92.508 13.7403C94.068 13.7403 95.221 13.3198 95.9671 12.4787C96.7138 11.6376 97.3014 10.4555 97.7306 8.93246H99.0199ZM112.56 13.3652C113.374 13.3652 114.143 13.4903 114.866 13.7403C115.589 13.9904 116.177 14.3995 116.629 14.9679C117.081 15.5362 117.308 16.3091 117.308 17.2866C117.308 18.2186 116.991 19.0256 116.358 19.7075C115.725 20.3895 114.9 20.9578 113.882 21.4125C112.865 21.8444 111.78 22.1967 110.627 22.4695C109.474 22.7423 108.366 22.9355 107.303 23.0492C107.303 24.4586 107.439 25.6407 107.71 26.5954C108.004 27.5502 108.433 28.2662 108.999 28.7436C109.564 29.221 110.288 29.4597 111.169 29.4597C111.825 29.4597 112.481 29.3119 113.136 29.0164C113.814 28.7209 114.459 28.2776 115.069 27.6866C115.68 27.0728 116.233 26.2885 116.731 25.3338L117.85 25.9816C117.217 27.1637 116.539 28.1412 115.815 28.9141C115.092 29.687 114.3 30.2553 113.441 30.619C112.583 30.9828 111.633 31.1646 110.593 31.1646C108.445 31.1646 106.862 30.494 105.845 29.1528C104.828 27.7889 104.319 26.0044 104.319 23.7993C104.319 22.4809 104.488 21.1965 104.828 19.9462C105.167 18.6959 105.675 17.5821 106.354 16.6046C107.032 15.6044 107.891 14.8201 108.931 14.2518C109.971 13.6608 111.18 13.3652 112.56 13.3652ZM112.085 14.5246C111.045 14.5246 110.186 14.8769 109.508 15.5816C108.852 16.2864 108.343 17.1956 107.981 18.3095C107.642 19.4234 107.428 20.5941 107.337 21.8216C108.535 21.6625 109.677 21.3784 110.762 20.9692C111.848 20.56 112.74 20.0372 113.441 19.4007C114.143 18.7414 114.493 17.9799 114.493 17.1161C114.493 16.3887 114.289 15.7749 113.882 15.2748C113.498 14.7746 112.899 14.5246 112.085 14.5246Z" fill="#171717"/>
<path d="M2.29545 31V7.72727H6.51136V27.4659H16.7614V31H2.29545ZM19.5986 31V13.5455H23.7123V31H19.5986ZM21.6668 11.0682C21.0153 11.0682 20.4547 10.8523 19.985 10.4205C19.5153 9.98106 19.2805 9.45454 19.2805 8.84091C19.2805 8.2197 19.5153 7.69318 19.985 7.26136C20.4547 6.82197 21.0153 6.60227 21.6668 6.60227C22.3259 6.60227 22.8865 6.82197 23.3486 7.26136C23.8183 7.69318 24.0532 8.2197 24.0532 8.84091C24.0532 9.45454 23.8183 9.98106 23.3486 10.4205C22.8865 10.8523 22.3259 11.0682 21.6668 11.0682ZM32.3251 31.3523C31.2191 31.3523 30.2228 31.1553 29.3365 30.7614C28.4577 30.3598 27.7607 29.7689 27.2456 28.9886C26.738 28.2083 26.4842 27.2462 26.4842 26.1023C26.4842 25.1174 26.666 24.303 27.0297 23.6591C27.3933 23.0152 27.8895 22.5 28.5183 22.1136C29.1471 21.7273 29.8554 21.4356 30.6433 21.2386C31.4387 21.0341 32.2607 20.8864 33.1092 20.7955C34.1319 20.6894 34.9615 20.5947 35.5978 20.5114C36.2342 20.4205 36.6963 20.2841 36.9842 20.1023C37.2797 19.9129 37.4274 19.6212 37.4274 19.2273V19.1591C37.4274 18.303 37.1736 17.6402 36.666 17.1705C36.1584 16.7008 35.4274 16.4659 34.4728 16.4659C33.4653 16.4659 32.666 16.6856 32.0751 17.125C31.4918 17.5644 31.0978 18.0833 30.8933 18.6818L27.0524 18.1364C27.3554 17.0758 27.8554 16.1894 28.5524 15.4773C29.2494 14.7576 30.1016 14.2197 31.1092 13.8636C32.1168 13.5 33.2304 13.3182 34.4501 13.3182C35.291 13.3182 36.1281 13.4167 36.9615 13.6136C37.7948 13.8106 38.5562 14.1364 39.2456 14.5909C39.935 15.0379 40.488 15.6477 40.9047 16.4205C41.3289 17.1932 41.541 18.1591 41.541 19.3182V31H37.5865V28.6023H37.4501C37.2001 29.0871 36.8478 29.5417 36.3933 29.9659C35.9463 30.3826 35.3819 30.7197 34.7001 30.9773C34.0259 31.2273 33.2342 31.3523 32.3251 31.3523ZM33.3933 28.3295C34.2191 28.3295 34.935 28.1667 35.541 27.8409C36.1471 27.5076 36.613 27.0682 36.9387 26.5227C37.2721 25.9773 37.4387 25.3826 37.4387 24.7386V22.6818C37.31 22.7879 37.0903 22.8864 36.7797 22.9773C36.4766 23.0682 36.1357 23.1477 35.7569 23.2159C35.3781 23.2841 35.0031 23.3447 34.6319 23.3977C34.2607 23.4508 33.9387 23.4962 33.666 23.5341C33.0524 23.6174 32.5031 23.7538 32.0183 23.9432C31.5334 24.1326 31.1509 24.3977 30.8706 24.7386C30.5903 25.072 30.4501 25.5038 30.4501 26.0341C30.4501 26.7917 30.7266 27.3636 31.2797 27.75C31.8327 28.1364 32.5372 28.3295 33.3933 28.3295Z" fill="black"/>
</svg>
